<?xml version="1.0" encoding="utf-8"?>
<!-- Generator: Adobe Illustrator 17.0.0, SVG Export Plug-In . SVG Version: 6.00 Build 0)  -->
<!DOCTYPE svg PUBLIC "-//W3C//DTD SVG 1.1//EN" "http://www.w3.org/Graphics/SVG/1.1/DTD/svg11.dtd">
<svg version="1.1" id="Layer_1" xmlns="http://www.w3.org/2000/svg" xmlns:xlink="http://www.w3.org/1999/xlink" x="0px" y="0px"
	 width="150.167px" height="12.833px" viewBox="0 0 150.167 12.833" enable-background="new 0 0 150.167 12.833"
	 xml:space="preserve">
<g>
	<path d="M5.69,1.65C5.5,2.84,4.56,3.97,4.03,5.03c-1.02,2.04-2.22,4-3.44,5.91c-0.38,0.6,0.53,1.16,0.92,0.57
		c1.27-1.99,2.5-4.04,3.56-6.17c0.54-1.08,1.44-2.17,1.64-3.39C6.83,1.23,5.81,0.93,5.69,1.65z"/>
	<path d="M10.98,1.71c-0.19,1.12-0.95,2.15-1.43,3.15C9.06,5.87,8.67,6.95,8.17,7.95c-0.5,0.99-1.08,1.95-1.63,2.91
		c-0.36,0.62,0.56,1.19,0.91,0.57c0.59-1.02,1.19-2.04,1.72-3.1c0.56-1.12,1.02-2.34,1.57-3.48C11.2,3.9,11.82,3.08,12,2.01
		C12.12,1.3,11.1,1,10.98,1.71z"/>
	<path d="M15.4,1.58c-1.3,3.18-2.71,6.31-4.37,9.29c-0.34,0.63,0.57,1.19,0.92,0.57c1.65-2.98,3.07-6.11,4.36-9.29
		C16.58,1.49,15.66,0.92,15.4,1.58z"/>
	<path d="M39.53,1.57c-0.48,1.68-1.52,3.26-2.19,4.86c-0.68,1.6-1.56,3.15-2.52,4.58c-0.39,0.59,0.52,1.15,0.92,0.56
		c1.09-1.63,2-3.38,2.78-5.2c0.63-1.5,1.58-2.92,2.03-4.5C40.74,1.17,39.72,0.88,39.53,1.57z"/>
	<path d="M44.02,1.58c-0.33,1.87-1.62,3.37-2.37,5.07c-0.65,1.47-1.2,3.02-2.07,4.36c-0.39,0.6,0.53,1.16,0.91,0.57
		c0.97-1.5,1.58-3.23,2.3-4.87c0.72-1.65,1.92-3,2.25-4.84C45.17,1.17,44.15,0.86,44.02,1.58z"/>
	<path d="M48.97,1.4C48,2.77,47.36,4.51,46.64,6.02l-1.43,3.02l-0.6,1.24c-0.16,0.31-0.4,0.67-0.43,0.84
		c-0.09,0.38,0.18,0.85,0.62,0.68c1.03-0.39,1.82-3.22,2.25-4.15c0.88-1.85,1.64-4.01,2.83-5.68C50.29,1.39,49.37,0.83,48.97,1.4z"
		/>
	<path d="M53.54,1.4c-0.99,1.35-1.65,3.03-2.4,4.54c-0.51,1.02-1.02,2.03-1.55,3.04c-0.18,0.35-0.37,0.7-0.57,1.04
		c-0.14,0.25-0.5,0.72-0.58,0.81c-0.32,0.33-0.22,1.03,0.32,0.96c1.15-0.16,1.95-2.63,2.41-3.52c1-1.97,1.82-4.31,3.12-6.07
		C54.71,1.63,53.96,0.83,53.54,1.4z"/>
	<path d="M58.61,1.44c-1.61,3.3-3.99,6.13-5.07,9.71c-0.21,0.69,0.81,0.99,1.02,0.3c1.05-3.48,3.4-6.24,4.97-9.44
		C59.84,1.37,58.93,0.8,58.61,1.44z"/>
	<path d="M62.71,1.31c-1.7,3.2-3.24,6.58-4.55,9.98c-0.25,0.68,0.77,0.97,1.02,0.3c1.27-3.31,2.79-6.6,4.44-9.71
		C63.96,1.24,63.05,0.68,62.71,1.31z"/>
	<path d="M68.26,1.65c-1.56,3.06-3.05,6.17-4.76,9.15c-0.35,0.62,0.56,1.18,0.92,0.56c1.7-2.97,3.19-6.08,4.75-9.14
		C69.5,1.58,68.59,1.01,68.26,1.65z"/>
	<path d="M72.49,1.48c-1.05,1.68-1.97,3.54-2.7,5.41c-0.27,0.7-0.56,1.39-0.85,2.09c-0.12,0.29-0.98,1.97-0.99,2.19
		c-0.02,0.35,0.24,0.72,0.64,0.57c0.89-0.33,1.37-2.45,1.7-3.25c0.91-2.21,1.85-4.43,3.11-6.44C73.78,1.45,72.87,0.88,72.49,1.48z"
		/>
	<path d="M77.72,1.7c-1.27,3.26-3.46,5.98-4.62,9.29c-0.24,0.68,0.78,0.97,1.02,0.3c1.16-3.3,3.35-6.04,4.62-9.29
		C79.01,1.33,77.98,1.04,77.72,1.7z"/>
	<path d="M82.01,1.36c-1.14,1.76-1.76,3.82-2.81,5.63c-0.72,1.23-1.69,2.72-1.93,4.18c-0.03,0.24,0.02,0.52,0.25,0.64l0.05,0.03
		c0.47,0.23,0.88-0.27,0.79-0.66c0.29-1.28,1.13-2.56,1.75-3.62c1.06-1.81,1.67-3.87,2.81-5.64C83.31,1.32,82.39,0.76,82.01,1.36z"
		/>
	<path d="M20.42,1.41C19.45,3,18.85,4.8,18.04,6.48c-0.47,0.97-0.95,1.94-1.5,2.86c-0.28,0.47-0.41,1.12-0.75,1.53
		c-0.45,0.54,0.29,1.34,0.74,0.79c0.75-0.9,1.33-2.41,1.85-3.46c1.02-2.04,1.77-4.28,2.95-6.22C21.7,1.37,20.79,0.81,20.42,1.41z"/>
	<path d="M24.91,1.37c-1.13,1.57-1.86,3.66-2.59,5.46c-0.37,0.9-0.89,1.73-1.33,2.59c-0.24,0.47-0.43,1.13-0.8,1.5
		c-0.5,0.49,0.25,1.28,0.75,0.79c0.86-0.84,1.45-2.64,2-3.7c1.02-1.96,1.6-4.28,2.88-6.07C26.24,1.36,25.32,0.8,24.91,1.37z"/>
	<path d="M29.57,1.37c-1.28,3.35-3.26,6.45-4.66,9.77c-0.28,0.65,0.63,1.23,0.91,0.57c1.44-3.41,3.45-6.6,4.77-10.04
		C30.85,1,29.82,0.71,29.57,1.37z"/>
	<path d="M34.21,1.45c-0.98,1.44-1.75,3.15-2.37,4.79c-0.5,1.34-1.1,3.45-2.04,4.58c-0.46,0.53,0.29,1.33,0.74,0.79
		c0.71-0.84,1.12-2.19,1.57-3.18c0.97-2.16,1.69-4.45,3.01-6.41C35.52,1.43,34.6,0.87,34.21,1.45z"/>
	<path d="M87.21,1.59c-2.01,2.77-2.83,6.38-4.72,9.24c-0.39,0.59,0.53,1.16,0.91,0.57c1.89-2.86,2.71-6.47,4.72-9.24
		C88.53,1.58,87.62,1.02,87.21,1.59z"/>
	<path d="M91.56,1.33c-0.89,1-1.36,2.75-1.94,4c-0.87,1.85-1.53,3.86-2.73,5.52c-0.41,0.57,0.33,1.37,0.75,0.8
		c0.88-1.21,1.72-2.72,2.25-4.13c0.43-1.13,0.92-2.22,1.44-3.3c0.31-0.64,0.51-1.57,0.98-2.1C92.78,1.6,92.03,0.8,91.56,1.33z"/>
	<path d="M96.1,1.6c-1.9,2.75-3.09,6.2-4.62,9.19c-0.33,0.64,0.59,1.21,0.91,0.57c1.53-2.99,2.73-6.44,4.63-9.19
		C97.42,1.58,96.5,1.02,96.1,1.6z"/>
	<path d="M100.73,1.39c-1.96,2.95-3.09,6.49-4.76,9.62c-0.33,0.63,0.58,1.2,0.92,0.57c1.66-3.13,2.79-6.67,4.75-9.62
		C102.04,1.37,101.12,0.81,100.73,1.39z"/>
	<path d="M106.02,1.42c-1,1.64-1.78,3.41-2.69,5.11c-0.77,1.45-1.57,2.83-2.18,4.36c-0.03,0.04-0.06,0.08-0.08,0.14l-0.04,0.14
		c-0.22,0.7,0.77,0.95,1.02,0.29c0.67-1.75,1.62-3.29,2.49-4.93c0.81-1.51,1.5-3.08,2.39-4.55C107.3,1.37,106.39,0.81,106.02,1.42z"
		/>
	<path d="M110.59,1.36c-0.9,1.21-1.53,2.84-2.23,4.19c-0.91,1.77-2.05,3.49-2.81,5.33l-0.02,0.02l-0.04,0.1l0,0l-0.05,0.13
		c-0.24,0.59,0.7,1,0.96,0.43l0.05-0.09l0.01-0.05c0.64-1.65,1.73-3.17,2.54-4.73c0.74-1.44,1.38-3.25,2.34-4.53
		C111.76,1.59,111.02,0.79,110.59,1.36z"/>
	<path d="M115.83,1.46c-0.09,0.61-0.66,1.22-0.96,1.74c-0.67,1.21-1.44,2.34-2.08,3.58c-0.74,1.42-1.36,3.01-2.24,4.35
		c-0.39,0.6,0.53,1.16,0.92,0.57c1-1.53,1.71-3.35,2.55-4.97c0.57-1.09,1.27-2.08,1.87-3.14c0.32-0.57,0.86-1.15,0.96-1.83
		C116.95,1.05,115.94,0.74,115.83,1.46z"/>
	<path d="M125.36,1.57c-0.97,1.36-1.68,2.85-2.44,4.34c-0.86,1.67-1.92,3.2-2.72,4.9c-0.3,0.65,0.61,1.22,0.92,0.57
		c0.71-1.52,1.6-2.91,2.42-4.36c0.92-1.64,1.64-3.36,2.73-4.88C126.68,1.56,125.76,1,125.36,1.57z"/>
	<path d="M129.5,1.66c-1.73,2.9-2.89,6.15-4.54,9.1c-0.35,0.63,0.57,1.19,0.91,0.57c1.65-2.95,2.81-6.21,4.54-9.1
		C130.78,1.62,129.86,1.05,129.5,1.66z"/>
	<path d="M138.84,1.49c-1.82,2.83-3.32,6.04-4.72,9.14c-0.12,0.09-0.2,0.23-0.2,0.43v0.14c0,0.53,0.75,0.81,0.98,0.28
		c1.43-3.18,2.98-6.51,4.85-9.42C140.14,1.46,139.22,0.89,138.84,1.49z"/>
	<path d="M119.67,1.52c-1.56,3.07-2.82,6.3-4.36,9.39c-0.32,0.64,0.6,1.2,0.92,0.56c1.54-3.08,2.79-6.31,4.36-9.38
		C120.91,1.45,120,0.89,119.67,1.52z"/>
	<path d="M134.21,1.6c-1.3,3.21-3.11,6.17-4.62,9.24c-0.32,0.64,0.59,1.21,0.91,0.57c1.51-3.07,3.32-6.03,4.63-9.24
		C135.39,1.51,134.48,0.94,134.21,1.6z"/>
	<path d="M143.95,1.74c-1,1.53-1.59,3.28-2.38,4.93c-0.42,0.87-0.99,1.64-1.37,2.53c-0.19,0.45-0.42,1.1-0.7,1.5
		c-0.41,0.58,0.51,1.14,0.91,0.57c0.31-0.43,0.48-1.02,0.7-1.5c0.41-0.88,0.93-1.68,1.37-2.53c0.85-1.63,1.38-3.39,2.38-4.93
		C145.25,1.71,144.33,1.15,143.95,1.74z"/>
	<path d="M148.49,1.71c-0.88,1.27-1.47,2.8-2.19,4.17c-0.82,1.57-1.61,3.16-2.31,4.79c-0.28,0.66,0.63,1.23,0.92,0.57
		c0.69-1.63,1.49-3.22,2.3-4.79c0.72-1.37,1.31-2.91,2.19-4.17C149.8,1.69,148.89,1.13,148.49,1.71z"/>
</g>
</svg>
