<?xml version="1.0" encoding="utf-8"?>
<!-- Generator: Adobe Illustrator 17.0.0, SVG Export Plug-In . SVG Version: 6.00 Build 0)  -->
<!DOCTYPE svg PUBLIC "-//W3C//DTD SVG 1.1//EN" "http://www.w3.org/Graphics/SVG/1.1/DTD/svg11.dtd">
<svg version="1.1" id="Layer_1" xmlns="http://www.w3.org/2000/svg" xmlns:xlink="http://www.w3.org/1999/xlink" x="0px" y="0px"
	 width="173.375px" height="12.625px" viewBox="0 0 173.375 12.625" enable-background="new 0 0 173.375 12.625"
	 xml:space="preserve">
<g>
	<g>
		<path d="M10.18,5.9c-0.96,0.33-2.1,0.16-3.11,0.2S5.05,6.29,4.05,6.31C3.04,6.34,2.03,6.28,1.03,6.25c-0.65-0.02-0.66,0.98-0.01,1
			c1.06,0.03,2.13,0.09,3.19,0.06C5.35,7.28,6.5,7.12,7.64,7.07c0.95-0.04,1.88,0.12,2.79-0.2C11.03,6.66,10.79,5.69,10.18,5.9z"/>
		<path d="M5,2.04C5.34,3,5.16,4.14,5.2,5.15c0.04,1,0.19,2.01,0.22,3.02c0.02,1-0.04,2.01-0.07,3.01c-0.02,0.65,0.98,0.66,1,0.02
			C6.39,10.13,6.44,9.07,6.41,8C6.38,6.87,6.22,5.72,6.18,4.58C6.14,3.63,6.29,2.71,5.97,1.8C5.76,1.19,4.79,1.43,5,2.04z"/>
	</g>
	<g>
		<path d="M37.24,5.91c-1.52,0.36-3.22,0.21-4.78,0.37c-1.55,0.15-3.15,0.12-4.71-0.03c-0.64-0.06-0.64,0.94,0,1
			c1.77,0.17,3.55,0.14,5.32-0.03c1.46-0.15,3,0,4.42-0.34C38.12,6.73,37.87,5.77,37.24,5.91z"/>
		<path d="M31.91,1.89c0.36,1.51,0.21,3.22,0.36,4.77c0.16,1.55,0.13,3.15-0.02,4.71c-0.07,0.64,0.94,0.64,1,0
			c0.17-1.77,0.14-3.55-0.04-5.32c-0.14-1.45,0-2.99-0.33-4.42C32.73,1.01,31.76,1.26,31.91,1.89z"/>
	</g>
	<g>
		<path d="M50.48,6.08c-1.5-0.22-3.12-0.01-4.63,0.04c-1.02,0.04-2.05,0.08-3.07,0.09c-0.36,0-0.72,0-1.08-0.01
			c-0.25,0-0.79-0.09-0.89-0.12c-0.41-0.11-0.9,0.29-0.59,0.69c0.67,0.87,2.95,0.44,3.85,0.41c1.99-0.05,4.18-0.42,6.15-0.14
			C50.85,7.13,51.12,6.17,50.48,6.08z"/>
		<path d="M45.05,1.57c-0.21,1.5-0.01,3.11,0.05,4.62c0.04,1.03,0.07,2.05,0.09,3.07c0,0.36,0,0.72-0.01,1.08
			c-0.01,0.25-0.09,0.79-0.12,0.89c-0.11,0.41,0.29,0.9,0.69,0.59c0.87-0.66,0.44-2.94,0.41-3.85c-0.05-1.98-0.42-4.17-0.14-6.14
			C46.11,1.2,45.15,0.93,45.05,1.57z"/>
	</g>
	<g>
		<path d="M64.35,5.98c-3.1,0.08-6.19,0.25-9.29,0.17c-0.65-0.02-0.65,0.98-0.01,1c3.1,0.08,6.2-0.09,9.29-0.17
			C64.99,6.97,64.99,5.97,64.35,5.98z"/>
		<path d="M59.13,1.92c0.08,3.09,0.24,6.18,0.16,9.28c-0.01,0.65,0.99,0.65,1,0c0.08-3.09-0.08-6.18-0.16-9.28
			C60.11,1.28,59.11,1.27,59.13,1.92z"/>
	</g>
	<g>
		<path d="M77.61,5.8c-1.9-0.15-3.77,0.26-5.67,0.2c-1.28-0.03-2.89-0.17-4.13,0.29c-0.2,0.07-0.39,0.24-0.37,0.48v0.05
			c0.04,0.49,0.62,0.61,0.88,0.36c1.12-0.33,2.5-0.21,3.62-0.18c1.89,0.07,3.77-0.35,5.66-0.2C78.25,6.85,78.25,5.85,77.61,5.8z"/>
		<path d="M72.01,1.72c-0.15,1.89,0.26,3.77,0.2,5.66c-0.04,1.28-0.18,2.89,0.28,4.13c0.08,0.19,0.25,0.39,0.48,0.37l0.06-0.01
			c0.49-0.03,0.61-0.62,0.35-0.87c-0.32-1.12-0.21-2.51-0.17-3.62c0.07-1.89-0.35-3.76-0.2-5.66C73.06,1.08,72.06,1.08,72.01,1.72z"
			/>
	</g>
	<g>
		<path d="M23.56,6.11c-1.73-0.31-3.69-0.08-5.44,0.03C17.25,6.2,16.37,6.1,15.5,6.08c-0.47-0.01-1.08,0.1-1.53-0.07
			c-0.61-0.22-0.91,0.73-0.31,0.96c1.04,0.38,2.72,0.15,3.8,0.18c1.99,0.06,4.07-0.4,6.05-0.04C24.14,7.22,24.19,6.22,23.56,6.11z"
			/>
		<path d="M18.21,1.68c-0.31,1.72-0.08,3.69,0.04,5.43c0.06,0.87-0.05,1.75-0.07,2.62c-0.01,0.47,0.1,1.08-0.06,1.53
			c-0.23,0.6,0.73,0.91,0.95,0.3c0.38-1.04,0.15-2.71,0.18-3.79c0.06-1.99-0.4-4.07-0.04-6.04C19.33,1.09,18.32,1.05,18.21,1.68z"/>
	</g>
	<g>
		<path d="M90.77,5.9c-3.01-0.34-6.23,0.21-9.26,0.29c-0.65,0.02-0.65,1.02-0.01,1c3.03-0.08,6.25-0.63,9.27-0.29
			C91.41,6.97,91.41,5.97,90.77,5.9z"/>
		<path d="M85.46,1.93c-0.33,3.01,0.22,6.23,0.3,9.25c0.01,0.65,1.02,0.65,1,0.01c-0.08-3.03-0.63-6.25-0.3-9.26
			C86.54,1.29,85.53,1.29,85.46,1.93z"/>
	</g>
	<g>
		<path d="M104.53,6.05c-1.36-0.2-2.91,0-4.29,0.03c-1.79,0.04-3.65-0.13-5.43,0.06h-0.02h-0.1v0.01l-0.13,0.01
			C94,6.23,94.13,7.18,94.69,7.14h0.09l0.04-0.01c1.58-0.2,3.26,0.01,4.85-0.02c1.46-0.03,3.15-0.31,4.6-0.1
			C104.9,7.11,105.16,6.14,104.53,6.05z"/>
		<path d="M99.03,1.58c-0.2,1.36,0.01,2.91,0.04,4.29c0.04,1.79-0.13,3.64,0.06,5.42v0.03v0.09h0.01l0.01,0.13
			c0.07,0.56,1.02,0.43,0.98-0.13v-0.09l-0.01-0.04c-0.21-1.58,0.01-3.26-0.02-4.85c-0.03-1.45-0.31-3.15-0.1-4.59
			C100.09,1.21,99.13,0.95,99.03,1.58z"/>
	</g>
	<g>
		<path d="M118.36,6.1c-1.5-0.19-2.99-0.11-4.5-0.08c-1.69,0.04-3.37-0.15-5.05-0.04c-0.65,0.04-0.65,1.04-0.01,1
			c1.5-0.09,3,0.02,4.5,0.05c1.7,0.02,3.37-0.15,5.05,0.07C118.99,7.18,118.99,6.18,118.36,6.1z"/>
		<path d="M113.1,1.78c-0.19,1.5-0.11,2.99-0.07,4.49c0.04,1.69-0.15,3.37-0.05,5.06c0.04,0.64,1.04,0.65,1,0
			c-0.09-1.5,0.03-3,0.05-4.5c0.03-1.69-0.14-3.36,0.07-5.04C114.18,1.15,113.18,1.15,113.1,1.78z"/>
	</g>
	<g>
		<path d="M131.25,5.94c-3.03-0.23-6.23-0.04-9.27,0.2c-0.12-0.06-0.27-0.07-0.43,0.02l-0.1,0.06c-0.41,0.24-0.27,0.98,0.24,0.94
			c3.13-0.25,6.43-0.46,9.55-0.22C131.89,6.99,131.89,5.99,131.25,5.94z"/>
		<path d="M125.84,1.78c-0.23,3.04-0.03,6.22,0.2,9.26c-0.06,0.13-0.06,0.27,0.03,0.43l0.06,0.11c0.23,0.41,0.97,0.26,0.93-0.25
			c-0.24-3.12-0.46-6.42-0.22-9.54C126.89,1.14,125.89,1.15,125.84,1.78z"/>
	</g>
	<g>
		<path d="M145.2,6.06c-1.33,0.18-2.84-0.06-4.19-0.07c-1.52-0.02-3.4,0.37-4.89,0.07c-0.63-0.12-0.89,0.84-0.26,0.97
			c1.58,0.31,3.53-0.02,5.15-0.04c1.45-0.03,3,0.23,4.44,0.04C146.09,6.94,145.83,5.98,145.2,6.06z"/>
		<path d="M140.13,2.02c0.18,1.33-0.06,2.84-0.07,4.19c-0.01,1.52,0.37,3.4,0.07,4.89c-0.12,0.63,0.84,0.89,0.97,0.26
			c0.31-1.59-0.02-3.54-0.04-5.15c-0.02-1.45,0.24-3,0.04-4.44C141.01,1.13,140.05,1.39,140.13,2.02z"/>
	</g>
	<g>
		<path d="M158.39,6.01c-1.28-0.19-2.82-0.09-4.11,0.06c-0.88,0.1-1.73,0.1-2.62,0.06c-0.81-0.03-1.73,0.19-2.52,0.03
			c-0.63-0.13-0.9,0.84-0.26,0.96c1.33,0.27,2.95,0.05,4.33,0.05c1.61,0,3.31-0.44,4.92-0.19C158.76,7.08,159.03,6.11,158.39,6.01z"
			/>
		<path d="M153.09,1.81c-0.2,1.28-0.1,2.82,0.05,4.1c0.1,0.88,0.1,1.73,0.07,2.62c-0.03,0.81,0.19,1.73,0.02,2.53
			c-0.12,0.63,0.84,0.89,0.97,0.25c0.27-1.33,0.04-2.95,0.04-4.32c0.01-1.61-0.43-3.31-0.18-4.92
			C154.15,1.44,153.19,1.17,153.09,1.81z"/>
	</g>
	<g>
		<path d="M172.47,5.99c-1.54-0.26-3.19-0.09-4.74-0.02c-1.61,0.07-3.21-0.02-4.81,0.22h-0.03l-0.13,0.01
			c-0.56,0.1-0.44,1.02,0.12,0.99l0.1-0.01l0.04-0.01c1.56-0.25,3.13-0.15,4.7-0.2c1.47-0.05,3.04-0.26,4.5-0.01
			C172.85,7.06,173.11,6.1,172.47,5.99z"/>
		<path d="M167.05,1.71c-0.26,1.54-0.09,3.19-0.02,4.74c0.07,1.61-0.02,3.2,0.22,4.8v0.03l0.01,0.13c0.1,0.56,1.02,0.44,0.99-0.12
			l-0.01-0.09l-0.01-0.05c-0.25-1.55-0.15-3.12-0.2-4.69c-0.04-1.47-0.26-3.04-0.01-4.49C168.13,1.34,167.16,1.07,167.05,1.71z"/>
	</g>
</g>
</svg>
