<?xml version="1.0" encoding="utf-8"?>
<!-- Generator: Adobe Illustrator 17.0.0, SVG Export Plug-In . SVG Version: 6.00 Build 0)  -->
<!DOCTYPE svg PUBLIC "-//W3C//DTD SVG 1.1//EN" "http://www.w3.org/Graphics/SVG/1.1/DTD/svg11.dtd">
<svg version="1.1" id="Layer_1" xmlns="http://www.w3.org/2000/svg" xmlns:xlink="http://www.w3.org/1999/xlink" x="0px" y="0px"
	 width="158.833px" height="10.167px" viewBox="0 0 158.833 10.167" enable-background="new 0 0 158.833 10.167"
	 xml:space="preserve">
<g>
	<g>
		<path d="M8.133,1.34c-0.47,0.91-1.5,1.6-2.24,2.34c-0.74,0.75-1.4,1.56-2.16,2.3c-0.75,0.73-1.58,1.4-2.37,2.09
			c-0.52,0.44,0.26,1.15,0.77,0.7c0.85-0.72,1.71-1.44,2.51-2.22c0.85-0.82,1.61-1.75,2.46-2.59c0.7-0.7,1.53-1.25,1.98-2.12
			C9.383,1.27,8.433,0.76,8.133,1.34z"/>
		<path d="M1.113,2.32c1.01,0.43,1.77,1.36,2.59,2.03c0.83,0.67,1.73,1.27,2.54,1.95s1.56,1.43,2.32,2.15
			c0.49,0.46,1.27-0.24,0.78-0.7c-0.81-0.77-1.6-1.55-2.46-2.27c-0.91-0.77-1.94-1.46-2.87-2.22c-0.77-0.64-1.38-1.39-2.34-1.8
			C1.033,1.19,0.473,2.05,1.113,2.32z"/>
	</g>
	<g>
		<path d="M37.943,1.31c-0.93,1.3-2.4,2.37-3.51,3.55c-1.11,1.19-2.4,2.27-3.74,3.24c-0.56,0.4,0.21,1.11,0.76,0.72
			c1.53-1.11,2.92-2.36,4.18-3.7c1.04-1.11,2.37-2.07,3.24-3.3C39.263,1.28,38.323,0.77,37.943,1.31z"/>
		<path d="M30.643,2.11c1.44,0.83,2.63,2.16,3.94,3.16c1.31,1,2.5,2.17,3.57,3.38c0.44,0.51,1.23-0.18,0.8-0.68
			c-1.22-1.39-2.6-2.64-4.1-3.78c-1.22-0.94-2.28-2.14-3.64-2.93C30.623,0.91,30.043,1.76,30.643,2.11z"/>
	</g>
	<g>
		<path d="M52.553,1.25c-1.36,0.88-2.48,2.14-3.63,3.22c-0.78,0.74-1.56,1.47-2.36,2.19c-0.28,0.25-0.57,0.49-0.86,0.73
			c-0.2,0.18-0.69,0.49-0.8,0.54c-0.4,0.2-0.49,0.82,0.07,0.9c1.19,0.16,2.66-1.73,3.36-2.37c1.53-1.41,2.97-3.18,4.75-4.34
			C53.653,1.74,53.123,0.87,52.553,1.25z"/>
		<path d="M44.813,1.77c0.98,1.22,2.37,2.23,3.57,3.27c0.82,0.71,1.63,1.42,2.42,2.14c0.28,0.25,0.55,0.51,0.81,0.77
			c0.19,0.19,0.54,0.63,0.59,0.72c0.22,0.37,0.91,0.45,1-0.05c0.18-1.08-1.91-2.41-2.62-3.04c-1.56-1.38-3.52-2.69-4.81-4.3
			C45.363,0.77,44.403,1.25,44.813,1.77z"/>
	</g>
	<g>
		<path d="M67.813,1.38c-2.39,2.2-4.71,4.45-7.23,6.54c-0.52,0.43,0.24,1.15,0.77,0.72c2.51-2.09,4.83-4.34,7.22-6.54
			C69.063,1.65,68.303,0.93,67.813,1.38z"/>
		<path d="M60.573,2.08c2.43,2.16,4.92,4.26,7.23,6.53c0.48,0.47,1.27-0.22,0.79-0.69c-2.31-2.27-4.8-4.37-7.23-6.53
			C60.863,0.94,60.063,1.63,60.573,2.08z"/>
	</g>
	<g>
		<path d="M82.193,1.12c-1.61,1.2-2.79,2.79-4.33,4.05c-1.04,0.86-2.42,1.87-3.05,3.06c-0.1,0.19-0.12,0.44,0.07,0.6l0.05,0.04
			c0.4,0.32,0.96,0,0.97-0.36c0.63-1,1.81-1.88,2.72-2.62c1.55-1.26,2.72-2.85,4.33-4.05C83.503,1.43,82.733,0.72,82.193,1.12z"/>
		<path d="M74.643,2.06c1.33,1.46,3.08,2.52,4.49,3.91c0.94,0.95,2.06,2.19,3.37,2.76c0.21,0.09,0.5,0.11,0.67-0.07l0.04-0.04
			c0.36-0.36,0-0.86-0.39-0.87c-1.11-0.58-2.08-1.64-2.9-2.46c-1.39-1.4-3.16-2.46-4.49-3.91C74.983,0.88,74.193,1.57,74.643,2.06z"
			/>
	</g>
	<g>
		<path d="M22.783,1.15c-1.55,1.04-2.84,2.62-4.06,3.96c-0.61,0.67-1.36,1.24-2.03,1.86c-0.36,0.33-0.73,0.85-1.2,1.06
			c-0.64,0.29-0.1,1.16,0.53,0.87c1.09-0.49,2.17-1.86,3-2.62c1.55-1.41,2.75-3.22,4.52-4.41C24.113,1.48,23.343,0.77,22.783,1.15z"
			/>
		<path d="M15.203,2.01c1.15,1.4,2.9,2.56,4.39,3.67c0.74,0.55,1.37,1.23,2.05,1.83c0.37,0.33,0.94,0.66,1.18,1.09
			c0.31,0.57,1.27,0.09,0.96-0.49c-0.55-0.98-2.07-1.95-2.91-2.71c-1.55-1.4-3.56-2.48-4.88-4.08C15.573,0.8,14.783,1.5,15.203,2.01
			z"/>
	</g>
	<g>
		<path d="M96.793,1.32c-2.64,1.84-4.77,4.46-7.1,6.61c-0.5,0.45,0.26,1.17,0.76,0.72c2.33-2.15,4.46-4.77,7.1-6.61
			C98.113,1.65,97.353,0.93,96.793,1.32z"/>
		<path d="M89.563,2.15c2.03,2.38,4.93,4.31,7.31,6.42c0.5,0.45,1.3-0.24,0.79-0.69c-2.37-2.11-5.27-4.03-7.31-6.42
			C89.923,0.95,89.133,1.64,89.563,2.15z"/>
	</g>
	<g>
		<path d="M111.923,1.2c-1.23,0.79-2.3,2.01-3.36,2.98c-1.39,1.27-2.99,2.43-4.25,3.8l-0.02,0.01l-0.07,0.07l0,0l-0.09,0.1
			c-0.39,0.44,0.43,1.03,0.85,0.62l0.07-0.07l0.02-0.04c1.09-1.23,2.59-2.24,3.82-3.36c1.13-1.03,2.26-2.4,3.56-3.24
			C113.023,1.7,112.503,0.83,111.923,1.2z"/>
		<path d="M104.163,1.8c0.88,1.11,2.23,2.08,3.3,3.04c1.41,1.25,2.69,2.7,4.2,3.84l0.02,0.02l0.07,0.06
			c0.04,0.02,0.08,0.05,0.11,0.08c0.49,0.35,1.14-0.39,0.69-0.77l-0.08-0.06l-0.04-0.02c-1.36-0.99-2.48-2.34-3.72-3.46
			c-1.14-1.02-2.65-2.04-3.58-3.21C104.723,0.8,103.753,1.28,104.163,1.8z"/>
	</g>
	<g>
		<path d="M127.223,1.36c-1.33,0.9-2.44,1.99-3.61,3.05c-1.3,1.2-2.77,2.22-4.03,3.46c-0.48,0.47,0.28,1.19,0.76,0.72
			c1.12-1.1,2.39-2.05,3.6-3.07c1.36-1.15,2.55-2.43,4.04-3.44C128.553,1.7,127.783,0.98,127.223,1.36z"/>
		<path d="M119.773,1.91c0.99,1.2,2.2,2.21,3.38,3.26c1.32,1.18,2.45,2.51,3.82,3.64c0.52,0.44,1.32-0.25,0.8-0.68
			c-1.22-1.01-2.27-2.16-3.41-3.25c-1.27-1.23-2.67-2.31-3.79-3.66C120.143,0.71,119.353,1.4,119.773,1.91z"/>
	</g>
	<g>
		<path d="M141.283,1.26c-2.58,1.92-4.95,4.27-7.18,6.53c-0.14,0.05-0.26,0.15-0.32,0.32l-0.04,0.12c-0.14,0.45,0.54,0.88,0.91,0.49
			c2.29-2.33,4.73-4.76,7.39-6.75C142.593,1.56,141.823,0.85,141.283,1.26z"/>
		<path d="M133.833,2.02c2.13,2.32,4.72,4.47,7.23,6.48c0.05,0.13,0.16,0.24,0.35,0.29l0.13,0.03c0.5,0.13,0.97-0.48,0.55-0.82
			c-2.58-2.06-5.27-4.27-7.47-6.67C134.173,0.83,133.383,1.52,133.833,2.02z"/>
	</g>
	<g>
		<path d="M156.783,1.49c-0.92,1.05-2.3,1.92-3.37,2.84c-1.22,1.04-2.41,2.61-3.82,3.43c-0.59,0.35-0.06,1.22,0.54,0.87
			c1.49-0.87,2.78-2.45,4.04-3.58c1.13-1.02,2.55-1.9,3.55-3.04C158.163,1.51,157.213,0.99,156.783,1.49z"/>
		<path d="M149.683,2.1c1.16,0.83,2.12,2.08,3.14,3.05c1.16,1.1,2.89,2.17,3.8,3.44c0.38,0.54,1.35,0.06,0.96-0.48
			c-0.96-1.35-2.71-2.51-3.96-3.65c-1.13-1.03-2.11-2.31-3.37-3.21C149.703,0.85,149.133,1.71,149.683,2.1z"/>
	</g>
</g>
</svg>
