<?xml version="1.0" encoding="utf-8"?>
<!-- Generator: Adobe Illustrator 17.0.0, SVG Export Plug-In . SVG Version: 6.00 Build 0)  -->
<!DOCTYPE svg PUBLIC "-//W3C//DTD SVG 1.1//EN" "http://www.w3.org/Graphics/SVG/1.1/DTD/svg11.dtd">
<svg version="1.1" id="Layer_1" xmlns="http://www.w3.org/2000/svg" xmlns:xlink="http://www.w3.org/1999/xlink" x="0px" y="0px"
	 width="158.5px" height="15.667px" viewBox="0 0 158.5 15.667" enable-background="new 0 0 158.5 15.667" xml:space="preserve">
<g>
	<path fill-rule="evenodd" clip-rule="evenodd" d="M12.737,8.127c-1.17,1.91-2.8,3.61-4.47,5.13c-1.09-2.07-3.19-3.93-4.5-5.8
		c-0.88-1.24-1.98-2.76-2.08-4.33c-0.06-1.06,1.23-1.08,1.96-1.08c1.97,0,3.55,1.9,3.99,3.66c0.13,0.5,0.75,0.43,0.93,0.07
		c0.13-0.05,0.24-0.15,0.29-0.32c0.45-1.64,2.16-3.69,4.11-2.8C15.277,3.707,13.507,6.847,12.737,8.127z M14.977,3.857
		c-1.17-4.02-5.35-2.27-6.76,0.52c-0.95-2.09-3-3.47-5.37-3.31c-1.36,0.1-2.34,1.05-2.12,2.45c0.34,2.2,1.94,4.18,3.23,5.91
		c1.16,1.54,2.98,3.11,3.73,4.9c0.14,0.31,0.58,0.29,0.79,0.1C10.887,12.287,16.077,7.617,14.977,3.857z"/>
	<path fill-rule="evenodd" clip-rule="evenodd" d="M42.377,5.057c-0.67,2.29-2.27,4.41-3.68,6.3c-0.54,0.72-1.11,1.43-1.7,2.12
		l-0.51-0.5c-0.53-0.51-1.05-1.03-1.56-1.56c-1.3-1.36-2.53-2.88-3.11-4.7c-0.64-1.99,1.06-3.49,2.84-2.41
		c0.39,0.23,0.73,0.56,1.05,0.91c0.03,0.41,0.15,0.83,0.39,1.24c0.3,0.5,1.01,0.15,0.93-0.33c0.22-0.16,0.34-0.5,0.11-0.77
		l-0.41-0.49C37.037,2.147,43.817,0.077,42.377,5.057z M43.577,3.007c-0.92-3.72-6.51-1.9-7.67,1c-0.72-0.69-1.58-1.28-2.46-1.22
		c-1.39,0.1-2.62,1.12-2.72,2.59c-0.27,3.77,3.54,6.81,5.95,9.18c0.19,0.18,0.53,0.21,0.71,0c1.49-1.71,2.85-3.53,4.07-5.44
		C42.467,7.537,44.077,5.007,43.577,3.007z"/>
	<path fill-rule="evenodd" clip-rule="evenodd" d="M71.497,6.397c-0.79,2.91-4.31,4.7-6.4,6.8c-1.26-1.61-3.28-2.68-4.78-4.01
		c-1.12-1-2.19-2.32-1.48-3.87c1.37-3.01,5-2.08,6.22,0.39l-0.01,0.02c-0.02,0.2,0.06,0.33,0.19,0.4c0.02,0.08,0.06,0.16,0.08,0.24
		c0.18,0.61,1.14,0.35,0.97-0.27c-0.06-0.19-0.13-0.36-0.2-0.53c0.2-1,1.09-2.06,1.73-2.74C70.077,0.417,72.077,4.277,71.497,6.397z
		 M71.987,2.977c-1.87-3.48-5.39-1.43-6.57,1.41c-2.1-2.75-6.59-2.72-7.78,1.3c-1.13,3.84,5.4,6.02,6.98,8.54
		c0.16,0.26,0.57,0.36,0.79,0.1C68.147,11.187,74.707,8.047,71.987,2.977z"/>
	<path fill-rule="evenodd" clip-rule="evenodd" d="M97.567,8.277c-1.02,1.68-2.46,3.21-3.37,4.98c-1.92-2.27-4.35-4.21-5.47-7.03
		c-0.87-2.15,0.33-5.08,2.9-3.79c0.97,0.48,1.99,1.48,2.36,2.55l-0.1,0.2c-0.27,0.58,0.59,1.08,0.86,0.5l0.06-0.09
		c0.15-0.09,0.25-0.24,0.25-0.45c0.3-0.53,0.63-1.02,1.06-1.5c1.05-1.16,2.98-0.85,3.02,0.8C99.177,5.787,98.237,7.177,97.567,8.277
		z M98.087,1.747c-1.5-0.06-2.69,0.98-3.51,2.2c-1.29-2.13-4.65-4.37-6.28-1.94c-3.19,4.75,3.08,9.15,5.59,12.43
		c0.27,0.35,0.75,0.3,0.91-0.12c1.38-3.49,5-5.9,5.34-9.87C100.237,3.317,99.337,1.807,98.087,1.747z"/>
	<path fill-rule="evenodd" clip-rule="evenodd" d="M126.477,8.967c-1.39,1.73-3.31,3.09-5.22,4.22c-1-1.66-2.17-3.21-3.12-4.91
		c-0.69-1.22-1.36-2.68-1.15-4.12c0.14-0.99,1.06-1.49,1.92-1.79c1.79-0.63,3.37,0.73,3.95,2.3c-0.09,0.18-0.18,0.37-0.25,0.58
		c-0.14,0.39,0.22,0.64,0.55,0.59c0.23,0.41,0.98,0.35,0.93-0.21c-0.02-0.27-0.08-0.52-0.15-0.78c0.85-1.1,2.62-1.56,3.58-0.25
		C128.577,6.047,127.387,7.847,126.477,8.967z M128.887,5.667c-0.44-2.99-3.62-3.57-5.39-1.84c-1.55-2.71-5.69-3.91-7.31-0.43
		c-1.61,3.45,2.93,8.04,4.47,10.73c0.13,0.24,0.45,0.31,0.68,0.18C124.017,12.777,129.427,9.387,128.887,5.667z"/>
	<path fill-rule="evenodd" clip-rule="evenodd" d="M156.217,7.217c-0.98,2.3-2.95,4.08-4.49,6.05c-1.39-1.85-3.12-3.42-4.43-5.33
		c-0.97-1.41-1.69-3.4-0.43-4.88c1.39-1.62,4.43-0.6,4.36,1.53c0,0.07,0.02,0.13,0.03,0.18c-0.19,0.43,0.41,0.94,0.83,0.55
		c0.59-0.56,0.87-1.34,1.22-2.06c1.14-2.31,3.29-0.55,3.5,1.21C156.927,5.397,156.577,6.377,156.217,7.217z M157.557,3.107
		c-0.38-1.45-1.84-2.2-3.22-2.04c-1.35,0.16-1.72,1.43-2.26,2.51c-0.8-2.49-4.8-3.29-6.29-0.77c-2.57,4.35,3.41,8.46,5.51,11.53
		c0.22,0.33,0.64,0.31,0.87,0C154.567,10.977,158.777,7.737,157.557,3.107z"/>
</g>
</svg>
