<?xml version="1.0" encoding="utf-8"?>
<!-- Generator: Adobe Illustrator 17.0.0, SVG Export Plug-In . SVG Version: 6.00 Build 0)  -->
<!DOCTYPE svg PUBLIC "-//W3C//DTD SVG 1.1//EN" "http://www.w3.org/Graphics/SVG/1.1/DTD/svg11.dtd">
<svg version="1.1" id="Layer_1" xmlns="http://www.w3.org/2000/svg" xmlns:xlink="http://www.w3.org/1999/xlink" x="0px" y="0px"
	 width="121px" height="16.25px" viewBox="0 0 121 16.25" enable-background="new 0 0 121 16.25" xml:space="preserve">
<g>
	<path d="M12.255,4.91c-2.44-2.89-5.06-4.67-8.7-2.67c-0.57,0.31-0.07,1.17,0.5,0.86c3.39-1.85,6.97,0.68,8.28,3.97
		c1.66,4.16-2.78,7.6-6.57,6.75c-3.15-0.7-5.84-4.89-2.63-7.3c1.02-0.77,2.6-0.54,3.71-0.21c0.72,0.23,1.31,0.66,1.71,1.31
		c0.4,0.64,0.45,1.12,0.34,1.65c-0.31,1.46-1.86,1.67-2.93,1.21c-0.86-0.38-1.75-1.54-0.48-2.3c0.23-0.14,1.01-0.16,1.4,0.33
		c0.44,0.47,1.05-0.22,0.61-0.69c-1.16-1.24-3.61-0.66-3.61,1.26c0,2.15,3.84,3.4,5.17,1.73c3.58-4.5-4.95-7.93-7.83-3.7
		c-1.28,1.88-0.25,4.98,1.46,6.24c2.96,2.19,6.76,2.3,9.37-0.48C13.995,10.8,14.075,7.06,12.255,4.91z"/>
	<path d="M34.935,1.01c-2.43-0.86-6.63,0.81-7.52,3.3c-0.21,0.61,0.75,0.87,0.97,0.27c0.45-1.28,2.24-1.99,3.38-2.45
		c1.65-0.68,3.19-0.18,4.69,0.66c3.78,2.12,4.54,7.1,1.57,10.2c-3.51,3.68-9.83-0.06-8.87-4.8c0.62-3.09,4.42-2.82,6.39-1.35
		c2.47,1.86,1.17,4.97-1.89,4.14c-0.61-0.17-1.09-0.52-1.36-0.94c-1.05-1.62,1.72-3.4,2.21-1.23c0.21,0.78,0.98,0.91,0.97,0.27
		c-0.04-2.07-2.33-2.75-3.64-1.62c-2.25,1.96,0.88,4.94,3.17,4.6c3.64-0.55,3.44-4.72,0.61-6.44c-3.03-1.85-6.81-0.74-7.55,2.9
		c-0.72,3.56,2.57,6.15,5.6,6.92c3.76,0.96,6.93-3.05,7.22-6.34C41.215,5.2,38.405,2.23,34.935,1.01z"/>
	<path d="M62.475,1.98c-0.63-0.13-0.9,0.84-0.27,0.97c2.91,0.59,4.65,4.88,3.96,7.43c-0.7,2.55-3.85,3.34-6.12,2.99
		c-2.83-0.43-4.84-2.98-3.55-5.76c0.86-1.85,2.7-2.46,4.57-2.03c1.13,0.27,2.26,1.15,2.71,2.23c0.49,1.17-0.26,2.39-1.6,2.41
		c-1.86,0.03-2.31-0.86-2.41-1.42c-0.23-1.36,1.49-1.66,1.93-0.12c0.14,0.63,1.1,0.36,0.96-0.27c-0.4-1.8-3.4-2.68-3.83-0.38
		c-0.47,2.55,2.35,3.39,4.4,2.8c2.68-0.78,1.5-4.02,0.04-5.23c-2.09-1.72-5.34-1.63-7.02,0.6c-3.8,5.03,2.24,9.28,7.11,7.95
		c2.56-0.69,3.93-2.92,4.09-5.45C67.615,6.19,64.955,2.49,62.475,1.98z"/>
	<path d="M93.565,6.3c-0.28-1.38-1.34-3.71-2.74-4.25c-0.6-0.23-0.86,0.74-0.27,0.97c1.42,0.54,2.09,3.48,2.24,4.74
		c0.25,2.06-0.84,3.69-2.46,4.81c-3.84,2.66-9.17-1.5-7.24-5.79c0.93-2.06,3.14-3.07,5.17-1.94c1.93,1.08,4.21,4.4,0.95,5.61
		c-1.67,0.61-3.91-0.62-4.03-2.42c-0.08-1.29,1.06-1.42,1.89-1.25c0.38,0.09,0.72,0.25,1,0.52c1.57,1.48-1.09,2.03-0.7,0.57
		c0.26-0.58-0.6-1.09-0.87-0.5c-0.87,1.93,2.13,3.43,2.83,1.38c0.69-2.01-1.98-3.64-3.74-2.88c-2.48,1.06-1.3,4.38,0.74,5.23
		c2.82,1.18,6.51-0.56,5.32-3.98c-1.08-3.11-4.92-4.77-7.66-2.94c-3.34,2.23-2.9,6.7,0,8.96c2.72,2.12,6.97,1.36,8.83-1.57
		C93.875,9.89,93.965,8.22,93.565,6.3z"/>
	<path d="M119.805,5.24c-1.37-2.82-5.03-3.61-7.73-2.42c-3.06,1.34-4.82,4.19-4.07,7.51c0.15,0.7,1.96,3.38,3.24,3.74
		c0.42,0.12,0.99-0.53,0.46-0.82c-1.08-0.61-1.17-0.86-1.42-1.08c-0.63-0.57-1.04-1.31-1.32-2.1c-0.58-1.67,0.08-3.44,1.16-4.71
		c2.23-2.61,6.5-2.87,8.58,0c1.91,2.62,0.04,6.44-3.12,6.65c-2.13,0.14-4.67-1.7-4.31-4c0.21-1.33,1.63-1.94,2.78-2.04
		c0.67-0.02,1.27,0.19,1.8,0.63c0.63,0.57,0.79,1.42,0.63,1.9c-0.79,2.48-4.12,0.15-2.15-0.82c0.63-0.14,0.33-1.21-0.26-0.97
		c-2.54,1.02-1.34,3.75,0.9,3.78c2.93,0.04,3.12-4.36,0.57-5.24c-3.03-1.04-6.26,1.55-5,4.75c1.12,2.86,5.08,3.7,7.54,2.25
		C120.505,10.82,120.955,7.59,119.805,5.24z"/>
</g>
</svg>
