<?xml version="1.0" encoding="utf-8"?>
<!-- Generator: Adobe Illustrator 17.0.0, SVG Export Plug-In . SVG Version: 6.00 Build 0)  -->
<!DOCTYPE svg PUBLIC "-//W3C//DTD SVG 1.1//EN" "http://www.w3.org/Graphics/SVG/1.1/DTD/svg11.dtd">
<svg version="1.1" id="Layer_1" xmlns="http://www.w3.org/2000/svg" xmlns:xlink="http://www.w3.org/1999/xlink" x="0px" y="0px"
	 width="152.167px" height="8.333px" viewBox="0 0 152.167 8.333" enable-background="new 0 0 152.167 8.333" xml:space="preserve">
<g>
	<path fill-rule="evenodd" clip-rule="evenodd" d="M22.23,5.927c-1.19,0.4-2.26-0.09-2.6-1.3c-0.28-0.98,0.15-2.11,1.16-2.42
		c0.06-0.02,0.1-0.05,0.14-0.08c0.9,0.17,1.66,0.73,2.13,1.53C23.63,4.627,23.28,5.567,22.23,5.927z M24.19,3.737
		c-0.5-1.57-2.1-2.63-3.7-2.68c-0.28-0.01-0.43,0.18-0.47,0.39c-1.16,0.63-1.61,1.95-1.39,3.28c0.29,1.82,1.99,2.56,3.65,2.22
		C23.84,6.627,24.66,5.237,24.19,3.737z"/>
	<path fill-rule="evenodd" clip-rule="evenodd" d="M41.4,5.627c-1.08,0.4-2.44-0.26-2.59-1.43c-0.07-0.49,0.17-1.83,0.85-1.8
		c0.1,0.13,0.26,0.19,0.46,0.11c0.11,0.01,0.21-0.02,0.29-0.08C42.19,2.027,43.08,4.997,41.4,5.627z M40.08,1.487
		c-1.34-0.37-2.21,1.07-2.29,2.32c-0.11,1.89,1.69,3.17,3.48,2.87C44.65,6.117,43.26,0.447,40.08,1.487z"/>
	<path fill-rule="evenodd" clip-rule="evenodd" d="M58.77,5.537c-1.02,0.55-2.58,0.07-2.86-1.09c-0.28-1.21,0.86-2.02,1.94-1.93
		c0.19,0.02,0.32-0.07,0.4-0.18C59.5,2.307,60.01,4.857,58.77,5.537z M57.42,1.527c-1.54,0.1-2.77,1.43-2.49,3.06
		c0.31,1.85,2.5,2.54,4.11,1.91C61.84,5.417,60.23,0.367,57.42,1.527z"/>
	<path fill-rule="evenodd" clip-rule="evenodd" d="M76.34,5.667c-1.03,0.14-2.1-0.58-2.07-1.66c0.04-0.98,0.99-1.86,1.96-1.51
		c0.06,0.02,0.11,0.03,0.16,0.03C78.2,2.787,78.1,5.437,76.34,5.667z M76.52,1.547l-0.03-0.01c-1.53-0.56-2.95,0.73-3.19,2.2
		c-0.28,1.73,1.28,2.95,2.91,2.94c1.4,0,2.35-1.21,2.51-2.5C78.91,2.737,77.81,1.777,76.52,1.547z"/>
	<path fill-rule="evenodd" clip-rule="evenodd" d="M94.11,5.457c-0.95,0.27-2.45-0.28-2.51-1.39c-0.07-1.13,1.2-1.57,2.11-1.48
		c0.03,0,0.05-0.01,0.08-0.01s0.05,0.01,0.08,0.01C95.81,2.427,95.71,4.997,94.11,5.457z M93.87,1.587c-0.03,0-0.05,0.02-0.08,0.02
		s-0.05-0.02-0.08-0.02c-1.54-0.15-3.08,0.83-3.11,2.48c-0.03,1.71,2.04,2.65,3.51,2.41C96.99,5.997,97.09,1.317,93.87,1.587z"/>
	<path fill-rule="evenodd" clip-rule="evenodd" d="M2.75,6.037c-0.82-0.37-1.16-1.38-1.05-2.22c0.16-1.1,1.06-1.69,2.12-1.77
		c0.1,0,0.19-0.05,0.26-0.1c0.83,0.62,1.45,1.63,1.49,2.67C5.62,5.967,3.79,6.497,2.75,6.037z M4.4,0.947
		c-0.24-0.15-0.46-0.06-0.6,0.1c-1.51,0.12-2.76,0.96-3.06,2.51c-0.26,1.34,0.38,2.83,1.65,3.4c1.5,0.68,3.57-0.06,4.09-1.64
		C7.02,3.707,5.69,1.777,4.4,0.947z"/>
	<path fill-rule="evenodd" clip-rule="evenodd" d="M112.42,5.597c-1,0.52-2.41,0.07-2.76-1.04c-0.4-1.31,0.91-2.18,2.06-2.08
		c0.18,0.02,0.31-0.06,0.38-0.17c0.81,0,1.62,0.25,1.67,1.19C113.82,4.397,113.18,5.207,112.42,5.597z M111.88,1.307
		c-0.15,0.01-0.27,0.08-0.35,0.17c-1.64-0.05-3.04,1.2-2.91,2.91c0.15,1.86,2.16,2.72,3.79,2.28c1.35-0.37,2.28-1.69,2.36-3.05
		C114.86,1.967,113.32,1.227,111.88,1.307z"/>
	<path fill-rule="evenodd" clip-rule="evenodd" d="M131.46,4.947c-0.19,0.7-0.68,0.94-1.38,0.64c-0.62-0.26-1.03-0.65-1.33-1.25
		c-0.24-0.49-0.46-1.37,0.31-1.4c0.12,0,0.22-0.05,0.29-0.11l0.06-0.03c0.62-0.49,1.29-0.66,1.74,0.01
		C131.55,3.407,131.64,4.257,131.46,4.947z M132.01,2.297c-0.77-1.23-2.09-1.07-3.12-0.34c-2.24,0.24-1.24,3.23,0.05,4.13
		c1.08,0.76,2.63,0.98,3.3-0.39C132.75,4.667,132.62,3.267,132.01,2.297z"/>
	<path fill-rule="evenodd" clip-rule="evenodd" d="M149.66,4.197c-0.13,0.73-0.8,1.23-1.49,1.38c-0.85,0.18-1.87-0.53-1.95-1.39
		c-0.1-1.04,0.89-1.94,1.89-1.54c0.15,0.06,0.28,0.04,0.37-0.02C149.14,2.917,149.79,3.407,149.66,4.197z M148.37,1.517
		c-0.17-0.06-0.31-0.02-0.41,0.06c-1.32-0.24-2.54,0.85-2.72,2.18c-0.2,1.57,1.21,2.83,2.72,2.84c1.2,0.01,2.31-0.9,2.64-2.03
		C151.05,3.017,149.66,1.957,148.37,1.517z"/>
</g>
</svg>
