<?xml version="1.0" encoding="utf-8"?>
<!-- Generator: Adobe Illustrator 19.1.0, SVG Export Plug-In . SVG Version: 6.00 Build 0)  -->
<svg version="1.1" id="Capa_1" xmlns="http://www.w3.org/2000/svg" xmlns:xlink="http://www.w3.org/1999/xlink" x="0px" y="0px"
	 viewBox="251 -251 512 512" style="enable-background:new 251 -251 512 512;" xml:space="preserve">
<style type="text/css">
	.st0{fill:#FFDE01;}
</style>
<g>
	<g id="_x37__32_">
		<g>
			<path class="st0" d="M667,165c0,17.7-14.3,32-32,32H315c-17.7,0-32-14.3-32-32v-320c0-17.7,14.3-32,32-32h320
				c17.7,0,32,14.3,32,32v48h32v-48c0-35.3-28.7-64-64-64H315c-35.3,0-64,28.7-64,64v320c0,35.3,28.7,64,64,64h320
				c35.3,0,64-28.7,64-64v-48h-32V165z M747-11H401.6l83.9-83.9c6.3-6.2,6.3-16.4,0-22.6c-6.3-6.3-16.4-6.3-22.6,0L352.5-7.1
				c-3.3,3.3-4.8,7.7-4.5,12.1c-0.2,4.4,1.2,8.8,4.5,12.1l110.4,110.4c6.2,6.3,16.4,6.3,22.6,0c6.3-6.2,6.3-16.4,0-22.6L401.6,21
				H747c8.8,0,16-7.2,16-16S755.8-11,747-11z"/>
		</g>
	</g>
</g>
</svg>
