<?xml version="1.0" encoding="utf-8"?>
<!-- Generator: Adobe Illustrator 19.1.0, SVG Export Plug-In . SVG Version: 6.00 Build 0)  -->
<svg version="1.1" xmlns="http://www.w3.org/2000/svg" xmlns:xlink="http://www.w3.org/1999/xlink" x="0px" y="0px"
	 viewBox="212 -212.9 434.9 434.9" style="enable-background:new 212 -212.9 434.9 434.9;" xml:space="preserve">
<style type="text/css">
	.st0{fill:#FFDE01;}
</style>
<g id="Capa_1">
	<g>
		<path class="st0" d="M632.1-112.6h-280c-3.4,0-6.8,1.3-9.4,3.6L217.5,1.8c-3.5,3-5.5,7.6-5.5,12.5c0,4.8,2,9.4,5.5,12.5
			l125.2,110.7c2.7,2.4,6,3.6,9.4,3.6h280c8.2,0,14.9-7.2,14.9-16.1V-96.5C646.9-105.4,640.3-112.6,632.1-112.6z"/>
	</g>
</g>
<g id="Capa_2">
	<g>
		<path d="M591.6,4.7H397.5l46.3-46.3c4.1-4.1,4.1-10.6,0-14.7c-4.1-4.1-10.6-4.1-14.7,0L365,7.7c-4.1,4.1-4.1,10.6,0,14.7
			l64.1,64.1c2,2,4.7,3,7.3,3s5.3-1,7.3-3c4.1-4.1,4.1-10.6,0-14.7l-46.3-46.3h194.1c5.7,0,10.4-4.7,10.4-10.4
			C602,9.3,597.4,4.7,591.6,4.7z"/>
	</g>
</g>
</svg>
