<?xml version="1.0" encoding="utf-8"?>
<!-- Generator: Adobe Illustrator 19.1.0, SVG Export Plug-In . SVG Version: 6.00 Build 0)  -->
<svg version="1.1" id="Capa_1" xmlns="http://www.w3.org/2000/svg" xmlns:xlink="http://www.w3.org/1999/xlink" x="0px" y="0px"
	 viewBox="251 -251 512 512" style="enable-background:new 251 -251 512 512;" xml:space="preserve">
<style type="text/css">
	.st0{fill:#FFDE01;}
</style>
<path class="st0" d="M722.8-251H291.2c-11.8,0-19.6,7.8-19.6,19.6v66.7c0,5.9,2,9.8,5.9,13.7L465.8,37.4c2,2,2,3.9,2,7.8v196.2
	c0,11.8,7.8,19.6,19.6,19.6h39.2c11.8,0,19.6-7.8,19.6-19.6V45.2c0-2,2-5.9,2-7.8L736.5-151c3.9-3.9,5.9-7.8,5.9-13.7v-66.7
	C742.4-243.2,734.6-251,722.8-251z M499.2-39.1L381.5-156.8c-5.9-5.9-2-17.7,7.8-17.7h235.4c7.8,0,13.7,9.8,7.8,17.7L514.8-39.1
	C510.9-35.2,503.1-35.2,499.2-39.1L499.2-39.1z"/>
</svg>
