<?xml version="1.0" encoding="utf-8"?>
<!-- Generator: Adobe Illustrator 19.1.0, SVG Export Plug-In . SVG Version: 6.00 Build 0)  -->
<svg version="1.1" id="Layer_1" xmlns="http://www.w3.org/2000/svg" xmlns:xlink="http://www.w3.org/1999/xlink" x="0px" y="0px"
	 viewBox="251 -251 512 512" style="enable-background:new 251 -251 512 512;" xml:space="preserve">
<style type="text/css">
	.st0{fill:#FFDE01;}
</style>
<g id="XMLID_14_">
	<path id="XMLID_15_" class="st0" d="M715.7,180.2c10.2-15.5,16.1-34,16.1-53.8c0-47.4-33.6-87-78.3-96.3v-53.4
		c24-15.4,40.1-42.3,40.2-72.9c0-0.1,0-0.3,0-0.4c0,0,0,0,0-0.1s0-0.3,0-0.4c0-0.5,0-1-0.1-1.6c0-0.3-0.1-0.7-0.1-1s-0.1-0.6-0.1-1
		c-0.1-0.5-0.2-1-0.4-1.5c0-0.1-0.1-0.2-0.1-0.4v-0.1c0-0.1,0-0.1-0.1-0.2l-40.1-133.8c-2.6-8.5-10.4-14.3-19.3-14.3h-322
		c-8.9,0-16.7,5.8-19.3,14.3l-40.2,133.9c0,0.1,0,0.1-0.1,0.2v0.1c0,0.1-0.1,0.2-0.1,0.4c-0.1,0.5-0.3,1-0.4,1.5
		c-0.1,0.3-0.1,0.6-0.1,1c0,0.3-0.1,0.7-0.1,1c-0.1,0.5-0.1,1-0.1,1.6c0,0.1,0,0.3,0,0.4c0,0,0,0,0,0.1s0,0.3,0,0.4
		c0.2,30.6,16.2,57.5,40.2,72.9V173c0,11.1,9,20.1,20.1,20.1h249.8c18,19.5,43.8,31.8,72.3,31.8c19.9,0,38.3-5.9,53.8-16.1
		l41.5,41.5c3.9,3.9,9.1,5.9,14.2,5.9s10.3-2,14.2-5.9c7.9-7.9,7.9-20.6,0-28.5L715.7,180.2z M535,126.4c0,9.1,1.3,17.9,3.6,26.3
		h-207V-9.9c2.2,0.2,4.4,0.3,6.7,0.3c26.9,0,51.1-12.3,67.1-31.5c16,19.3,40.1,31.5,67.1,31.5s51.1-12.3,67.1-31.5
		c16,19.3,40.1,31.5,67.1,31.5c2.3,0,4.5-0.1,6.7-0.3V30C568.7,39.4,535,79,535,126.4z M633.4,184.5c-32.1,0-58.1-26.1-58.1-58.1
		s26.1-58.1,58.1-58.1s58.1,26.1,58.1,58.1S665.5,184.5,633.4,184.5z"/>
</g>
</svg>
